<svg xmlns="http://www.w3.org/2000/svg" width="512" height="512" fill="none"><rect width="448" height="448" x="32" y="32" fill="url(#a)" rx="96"/><g filter="url(#b)"><path fill="#fff" d="M105.091 349V162.818h45v149.637h77.454V349H105.091Zm260.682-125.364c-1.031-3.818-2.546-7.181-4.546-10.091a29.077 29.077 0 0 0-7.363-7.545c-2.909-2.061-6.243-3.606-10-4.636-3.758-1.091-7.879-1.637-12.364-1.637-9.03 0-16.848 2.182-23.455 6.546-6.545 4.363-11.606 10.727-15.181 19.091-3.576 8.303-5.364 18.394-5.364 30.272 0 11.94 1.727 22.122 5.182 30.546 3.454 8.424 8.454 14.848 15 19.273 6.545 4.424 14.485 6.636 23.818 6.636 8.242 0 15.212-1.333 20.909-4 5.758-2.727 10.121-6.576 13.091-11.546 2.97-4.969 4.455-10.818 4.455-17.545l8.363 1h-45.273v-32.818h80.273v24.636c0 16.667-3.545 30.94-10.636 42.818-7.03 11.879-16.727 21-29.091 27.364-12.303 6.364-26.455 9.545-42.455 9.545-17.757 0-33.363-3.848-46.818-11.545-13.454-7.697-23.939-18.667-31.454-32.909-7.516-14.303-11.273-31.273-11.273-50.909 0-15.273 2.273-28.818 6.818-40.637 4.546-11.878 10.879-21.939 19-30.181 8.182-8.243 17.636-14.485 28.364-18.728 10.788-4.242 22.394-6.363 34.818-6.363 10.788 0 20.818 1.545 30.091 4.636 9.333 3.091 17.576 7.455 24.727 13.091 7.212 5.636 13.061 12.333 17.546 20.091 4.484 7.757 7.272 16.273 8.363 25.545h-45.545Z"/></g><defs><linearGradient id="a" x1="256" x2="256" y1="32" y2="480" gradientUnits="userSpaceOnUse"><stop stop-color="#5C6DAC"/><stop offset="1" stop-color="#3B4773"/></linearGradient><filter id="b" width="332.228" height="215.273" x="93.091" y="160.273" color-interpolation-filters="sRGB" filterUnits="userSpaceOnUse"><feFlood flood-opacity="0" result="BackgroundImageFix"/><feColorMatrix in="SourceAlpha" result="hardAlpha" values="0 0 0 0 0 0 0 0 0 0 0 0 0 0 0 0 0 0 127 0"/><feOffset dy="12"/><feGaussianBlur stdDeviation="6"/><feComposite in2="hardAlpha" operator="out"/><feColorMatrix values="0 0 0 0 0 0 0 0 0 0 0 0 0 0 0 0 0 0 0.25 0"/><feBlend in2="BackgroundImageFix" result="effect1_dropShadow_15_30"/><feBlend in="SourceGraphic" in2="effect1_dropShadow_15_30" result="shape"/></filter></defs></svg>